<mxfile host="Electron" agent="Mozilla/5.0 (Windows NT 10.0; Win64; x64) AppleWebKit/537.36 (KHTML, like Gecko) draw.io/26.2.15 Chrome/134.0.6998.205 Electron/35.2.1 Safari/537.36" version="26.2.15">
  <diagram name="Page-1" id="kQaRizgeHSHtKcks_svt">
    <mxGraphModel dx="1028" dy="611" grid="1" gridSize="10" guides="1" tooltips="1" connect="1" arrows="1" fold="1" page="1" pageScale="1" pageWidth="850" pageHeight="1100" math="0" shadow="0">
      <root>
        <mxCell id="0" />
        <mxCell id="1" parent="0" />
        <mxCell id="w9PXPhudHdkU-LgZV-T3-13" style="edgeStyle=orthogonalEdgeStyle;rounded=0;orthogonalLoop=1;jettySize=auto;html=1;entryX=0.5;entryY=1;entryDx=0;entryDy=0;exitX=0.5;exitY=1;exitDx=0;exitDy=0;fontSize=14;strokeWidth=3;" edge="1" parent="1" source="w9PXPhudHdkU-LgZV-T3-1" target="w9PXPhudHdkU-LgZV-T3-7">
          <mxGeometry relative="1" as="geometry">
            <mxPoint x="120" y="270" as="sourcePoint" />
            <Array as="points">
              <mxPoint x="110" y="200" />
              <mxPoint x="352" y="200" />
            </Array>
          </mxGeometry>
        </mxCell>
        <mxCell id="w9PXPhudHdkU-LgZV-T3-14" style="edgeStyle=orthogonalEdgeStyle;rounded=0;orthogonalLoop=1;jettySize=auto;html=1;exitX=1;exitY=0.5;exitDx=0;exitDy=0;entryX=0;entryY=0.5;entryDx=0;entryDy=0;fontSize=14;strokeWidth=3;" edge="1" parent="1" source="w9PXPhudHdkU-LgZV-T3-1" target="w9PXPhudHdkU-LgZV-T3-9">
          <mxGeometry relative="1" as="geometry" />
        </mxCell>
        <mxCell id="w9PXPhudHdkU-LgZV-T3-1" value="SOIL VARIABLES&lt;div&gt;(SOIL TYPE, LULC)&lt;/div&gt;" style="rounded=0;whiteSpace=wrap;html=1;fontStyle=1;fontSize=14;fontColor=#7EA6E0;" vertex="1" parent="1">
          <mxGeometry x="50" y="90" width="120" height="60" as="geometry" />
        </mxCell>
        <mxCell id="w9PXPhudHdkU-LgZV-T3-53" style="edgeStyle=orthogonalEdgeStyle;rounded=0;orthogonalLoop=1;jettySize=auto;html=1;exitX=1;exitY=0.5;exitDx=0;exitDy=0;entryX=0;entryY=0.5;entryDx=0;entryDy=0;strokeWidth=3;" edge="1" parent="1" source="w9PXPhudHdkU-LgZV-T3-3" target="w9PXPhudHdkU-LgZV-T3-9">
          <mxGeometry relative="1" as="geometry" />
        </mxCell>
        <mxCell id="w9PXPhudHdkU-LgZV-T3-3" value="TOPOGRAPHY&lt;div&gt;VARIABLES&lt;/div&gt;&lt;div&gt;(SLOPE)&lt;/div&gt;" style="rounded=0;whiteSpace=wrap;html=1;fontStyle=1;fontSize=14;fontColor=#7EA6E0;" vertex="1" parent="1">
          <mxGeometry x="50" y="10" width="120" height="60" as="geometry" />
        </mxCell>
        <mxCell id="w9PXPhudHdkU-LgZV-T3-38" style="edgeStyle=orthogonalEdgeStyle;rounded=0;orthogonalLoop=1;jettySize=auto;html=1;exitX=1;exitY=0.5;exitDx=0;exitDy=0;fontSize=14;strokeWidth=3;" edge="1" parent="1" source="w9PXPhudHdkU-LgZV-T3-4" target="w9PXPhudHdkU-LgZV-T3-17">
          <mxGeometry relative="1" as="geometry" />
        </mxCell>
        <mxCell id="w9PXPhudHdkU-LgZV-T3-4" value="PRECIPITATION" style="rounded=0;whiteSpace=wrap;html=1;fontStyle=1;fontSize=14;fontColor=#7EA6E0;" vertex="1" parent="1">
          <mxGeometry x="70" y="230" width="120" height="60" as="geometry" />
        </mxCell>
        <mxCell id="w9PXPhudHdkU-LgZV-T3-39" style="edgeStyle=orthogonalEdgeStyle;rounded=0;orthogonalLoop=1;jettySize=auto;html=1;exitX=1;exitY=0.5;exitDx=0;exitDy=0;entryX=0;entryY=0.5;entryDx=0;entryDy=0;fontSize=14;strokeWidth=3;" edge="1" parent="1" target="w9PXPhudHdkU-LgZV-T3-17">
          <mxGeometry relative="1" as="geometry">
            <mxPoint x="215" y="360" as="sourcePoint" />
            <mxPoint x="475" y="310" as="targetPoint" />
            <Array as="points">
              <mxPoint x="330" y="360" />
              <mxPoint x="330" y="310" />
            </Array>
          </mxGeometry>
        </mxCell>
        <mxCell id="w9PXPhudHdkU-LgZV-T3-5" value="EVAPOTRANSPIRATION" style="rounded=0;whiteSpace=wrap;html=1;fontStyle=1;fontSize=14;fontColor=#7EA6E0;" vertex="1" parent="1">
          <mxGeometry x="50" y="330" width="170" height="60" as="geometry" />
        </mxCell>
        <mxCell id="w9PXPhudHdkU-LgZV-T3-37" style="edgeStyle=orthogonalEdgeStyle;rounded=0;orthogonalLoop=1;jettySize=auto;html=1;exitX=1;exitY=0.5;exitDx=0;exitDy=0;fontSize=14;strokeWidth=3;" edge="1" parent="1" source="w9PXPhudHdkU-LgZV-T3-7" target="w9PXPhudHdkU-LgZV-T3-17">
          <mxGeometry relative="1" as="geometry" />
        </mxCell>
        <mxCell id="w9PXPhudHdkU-LgZV-T3-7" value="FIELD&lt;div&gt;CAPACITY&lt;/div&gt;" style="rounded=1;whiteSpace=wrap;html=1;fontStyle=1;fontSize=14;" vertex="1" parent="1">
          <mxGeometry x="292" y="110" width="120" height="60" as="geometry" />
        </mxCell>
        <mxCell id="w9PXPhudHdkU-LgZV-T3-54" style="edgeStyle=orthogonalEdgeStyle;rounded=0;orthogonalLoop=1;jettySize=auto;html=1;exitX=1;exitY=0.5;exitDx=0;exitDy=0;strokeWidth=3;" edge="1" parent="1" source="w9PXPhudHdkU-LgZV-T3-9" target="w9PXPhudHdkU-LgZV-T3-12">
          <mxGeometry relative="1" as="geometry" />
        </mxCell>
        <mxCell id="w9PXPhudHdkU-LgZV-T3-9" value="RUNOFF&lt;div&gt;CLASSES&lt;/div&gt;" style="rounded=1;whiteSpace=wrap;html=1;fontStyle=1;fontSize=14;" vertex="1" parent="1">
          <mxGeometry x="290" y="40" width="120" height="60" as="geometry" />
        </mxCell>
        <mxCell id="w9PXPhudHdkU-LgZV-T3-18" style="edgeStyle=orthogonalEdgeStyle;rounded=0;orthogonalLoop=1;jettySize=auto;html=1;exitX=0.5;exitY=1;exitDx=0;exitDy=0;fontSize=14;strokeWidth=3;" edge="1" parent="1">
          <mxGeometry relative="1" as="geometry">
            <mxPoint x="539.5" y="80" as="sourcePoint" />
            <mxPoint x="539.5" y="270" as="targetPoint" />
          </mxGeometry>
        </mxCell>
        <mxCell id="w9PXPhudHdkU-LgZV-T3-12" value="RUNOFF COEFFICIENTS" style="rounded=1;whiteSpace=wrap;html=1;fontStyle=1;fontSize=14;" vertex="1" parent="1">
          <mxGeometry x="480" y="40" width="120" height="60" as="geometry" />
        </mxCell>
        <mxCell id="w9PXPhudHdkU-LgZV-T3-40" style="edgeStyle=orthogonalEdgeStyle;rounded=0;orthogonalLoop=1;jettySize=auto;html=1;exitX=0.5;exitY=1;exitDx=0;exitDy=0;fontSize=14;strokeWidth=3;" edge="1" parent="1" source="w9PXPhudHdkU-LgZV-T3-17" target="w9PXPhudHdkU-LgZV-T3-28">
          <mxGeometry relative="1" as="geometry" />
        </mxCell>
        <mxCell id="w9PXPhudHdkU-LgZV-T3-17" value="SOIL WATER&lt;div&gt;BALANCE&lt;/div&gt;" style="ellipse;whiteSpace=wrap;html=1;fontStyle=1;fontSize=18;fontColor=#EA6B66;" vertex="1" parent="1">
          <mxGeometry x="470" y="270" width="140" height="80" as="geometry" />
        </mxCell>
        <mxCell id="w9PXPhudHdkU-LgZV-T3-41" style="edgeStyle=orthogonalEdgeStyle;rounded=0;orthogonalLoop=1;jettySize=auto;html=1;exitX=1;exitY=0.5;exitDx=0;exitDy=0;entryX=1;entryY=0.5;entryDx=0;entryDy=0;fontSize=14;strokeWidth=3;" edge="1" parent="1" source="w9PXPhudHdkU-LgZV-T3-28" target="w9PXPhudHdkU-LgZV-T3-30">
          <mxGeometry relative="1" as="geometry" />
        </mxCell>
        <mxCell id="w9PXPhudHdkU-LgZV-T3-28" value="SURFACE RUNOFF" style="rounded=1;whiteSpace=wrap;html=1;fontStyle=1;fontSize=14;" vertex="1" parent="1">
          <mxGeometry x="440" y="460" width="120" height="60" as="geometry" />
        </mxCell>
        <mxCell id="w9PXPhudHdkU-LgZV-T3-42" style="edgeStyle=orthogonalEdgeStyle;rounded=0;orthogonalLoop=1;jettySize=auto;html=1;exitX=1;exitY=0.5;exitDx=0;exitDy=0;entryX=1;entryY=0.5;entryDx=0;entryDy=0;fontSize=14;strokeWidth=3;" edge="1" parent="1" source="w9PXPhudHdkU-LgZV-T3-30" target="w9PXPhudHdkU-LgZV-T3-31">
          <mxGeometry relative="1" as="geometry" />
        </mxCell>
        <mxCell id="w9PXPhudHdkU-LgZV-T3-30" value="INFILTRATION" style="rounded=1;whiteSpace=wrap;html=1;fontStyle=1;fontSize=14;" vertex="1" parent="1">
          <mxGeometry x="440" y="540" width="120" height="60" as="geometry" />
        </mxCell>
        <mxCell id="w9PXPhudHdkU-LgZV-T3-46" style="edgeStyle=orthogonalEdgeStyle;rounded=0;orthogonalLoop=1;jettySize=auto;html=1;exitX=0;exitY=0.5;exitDx=0;exitDy=0;entryX=0.5;entryY=1;entryDx=0;entryDy=0;fontSize=14;strokeWidth=3;" edge="1" parent="1" source="w9PXPhudHdkU-LgZV-T3-31" target="w9PXPhudHdkU-LgZV-T3-32">
          <mxGeometry relative="1" as="geometry">
            <Array as="points">
              <mxPoint x="430" y="650" />
              <mxPoint x="430" y="700" />
              <mxPoint x="340" y="700" />
            </Array>
          </mxGeometry>
        </mxCell>
        <mxCell id="w9PXPhudHdkU-LgZV-T3-31" value="INPET" style="rounded=1;whiteSpace=wrap;html=1;fontStyle=1;fontSize=14;" vertex="1" parent="1">
          <mxGeometry x="440" y="620" width="120" height="60" as="geometry" />
        </mxCell>
        <mxCell id="w9PXPhudHdkU-LgZV-T3-47" style="edgeStyle=orthogonalEdgeStyle;rounded=0;orthogonalLoop=1;jettySize=auto;html=1;exitX=1;exitY=0.5;exitDx=0;exitDy=0;entryX=1;entryY=0.5;entryDx=0;entryDy=0;fontSize=14;strokeWidth=3;" edge="1" parent="1" source="w9PXPhudHdkU-LgZV-T3-32" target="w9PXPhudHdkU-LgZV-T3-33">
          <mxGeometry relative="1" as="geometry" />
        </mxCell>
        <mxCell id="w9PXPhudHdkU-LgZV-T3-32" value="ACUMULATED&lt;div&gt;WATER&amp;nbsp;&lt;/div&gt;&lt;div&gt;LOSS&lt;/div&gt;" style="rounded=1;whiteSpace=wrap;html=1;fontStyle=1;fontSize=14;" vertex="1" parent="1">
          <mxGeometry x="280" y="620" width="120" height="60" as="geometry" />
        </mxCell>
        <mxCell id="w9PXPhudHdkU-LgZV-T3-52" style="edgeStyle=orthogonalEdgeStyle;rounded=0;orthogonalLoop=1;jettySize=auto;html=1;exitX=1;exitY=0.5;exitDx=0;exitDy=0;entryX=1;entryY=0.5;entryDx=0;entryDy=0;strokeWidth=3;" edge="1" parent="1" source="w9PXPhudHdkU-LgZV-T3-33" target="w9PXPhudHdkU-LgZV-T3-34">
          <mxGeometry relative="1" as="geometry">
            <Array as="points">
              <mxPoint x="420" y="570" />
              <mxPoint x="420" y="490" />
            </Array>
          </mxGeometry>
        </mxCell>
        <mxCell id="w9PXPhudHdkU-LgZV-T3-33" value="WATER SOIL" style="rounded=1;whiteSpace=wrap;html=1;fontStyle=1;fontSize=14;" vertex="1" parent="1">
          <mxGeometry x="275" y="540" width="120" height="60" as="geometry" />
        </mxCell>
        <mxCell id="w9PXPhudHdkU-LgZV-T3-49" style="edgeStyle=orthogonalEdgeStyle;rounded=0;orthogonalLoop=1;jettySize=auto;html=1;exitX=0;exitY=0.5;exitDx=0;exitDy=0;entryX=0.5;entryY=0;entryDx=0;entryDy=0;fontSize=14;strokeWidth=3;" edge="1" parent="1" source="w9PXPhudHdkU-LgZV-T3-34" target="w9PXPhudHdkU-LgZV-T3-35">
          <mxGeometry relative="1" as="geometry" />
        </mxCell>
        <mxCell id="w9PXPhudHdkU-LgZV-T3-34" value="CHANGE&lt;div&gt;WATER SOIL&lt;/div&gt;" style="rounded=1;whiteSpace=wrap;html=1;fontStyle=1;fontSize=14;" vertex="1" parent="1">
          <mxGeometry x="275" y="460" width="120" height="60" as="geometry" />
        </mxCell>
        <mxCell id="w9PXPhudHdkU-LgZV-T3-50" style="edgeStyle=orthogonalEdgeStyle;rounded=0;orthogonalLoop=1;jettySize=auto;html=1;exitX=0;exitY=0.5;exitDx=0;exitDy=0;entryX=0;entryY=0.5;entryDx=0;entryDy=0;fontSize=14;strokeWidth=3;" edge="1" parent="1" source="w9PXPhudHdkU-LgZV-T3-35" target="w9PXPhudHdkU-LgZV-T3-36">
          <mxGeometry relative="1" as="geometry" />
        </mxCell>
        <mxCell id="w9PXPhudHdkU-LgZV-T3-35" value="ACTUAL&lt;div&gt;EVAPOTRANSPIRATION&lt;/div&gt;" style="rounded=1;whiteSpace=wrap;html=1;fontStyle=1;fontSize=14;" vertex="1" parent="1">
          <mxGeometry x="50" y="480" width="180" height="60" as="geometry" />
        </mxCell>
        <mxCell id="w9PXPhudHdkU-LgZV-T3-36" value="RECHARGE" style="rounded=1;whiteSpace=wrap;html=1;fontStyle=1;fontSize=14;" vertex="1" parent="1">
          <mxGeometry x="90" y="570" width="120" height="60" as="geometry" />
        </mxCell>
      </root>
    </mxGraphModel>
  </diagram>
</mxfile>
